# Blender 3.6.22
# www.blender.org
mtllib cage_lamp.mtl
o CageLamp
v 0.174699 0.050284 -0.170405
v 0.174699 0.037785 -0.170405
v 0.187198 0.050284 -0.175448
v 0.187198 0.037785 -0.175448
v -0.002109 0.145255 -0.201498
v -0.002109 0.101109 -0.243600
v -0.002109 -0.103152 -0.243600
v -0.002109 -0.145255 -0.201498
v 0.056171 0.061436 -0.200955
v 0.056171 0.094421 -0.170760
v 0.056171 -0.093758 -0.171142
v 0.056171 -0.063790 -0.201110
v -0.002109 0.103152 0.243600
v -0.002109 0.145255 0.201498
v -0.002109 -0.145255 0.201498
v -0.002109 -0.103152 0.243600
v 0.056171 0.094258 0.170780
v 0.056171 0.064290 0.200748
v 0.056171 -0.063790 0.200748
v 0.056171 -0.093758 0.170780
v 0.009739 0.097808 -0.169350
v 0.009739 0.063030 -0.204128
v 0.174699 0.050284 0.170405
v 0.009739 -0.063030 -0.204128
v 0.009739 -0.097808 -0.169350
v 0.174699 0.037785 0.170405
v 0.125944 0.063030 -0.204128
v 0.124890 0.095332 -0.169350
v 0.169823 0.063030 -0.169350
v 0.125944 -0.097808 -0.169350
v 0.125944 -0.063030 -0.204128
v 0.169823 -0.063030 -0.169350
v 0.009739 0.063030 0.204128
v 0.009739 0.097808 0.169350
v 0.187198 0.050284 0.175448
v 0.009739 -0.097808 0.169350
v 0.009739 -0.063030 0.204128
v 0.187198 0.037785 0.175448
v 0.125944 0.063030 0.204128
v 0.169823 0.063030 0.169350
v 0.125944 0.097808 0.169350
v 0.169823 -0.063030 0.169350
v 0.125944 -0.063030 0.204128
v 0.125944 -0.097808 0.169350
v 0.137281 0.037785 -0.222204
v 0.131756 0.037785 -0.209752
v 0.131756 0.050284 -0.209752
v 0.131756 0.050284 0.209752
v 0.131756 0.037785 0.209752
v 0.137281 0.037785 0.222204
v 0.137281 0.050284 0.222204
v 0.137281 0.050284 -0.222204
v 0.053429 0.037785 -0.229540
v 0.052340 0.037785 -0.217088
v 0.052340 0.050284 -0.217088
v 0.052340 0.050284 0.217088
v 0.052340 0.037785 0.217088
v 0.053429 0.037785 0.229540
v 0.053429 0.050284 0.229540
v 0.053429 0.050284 -0.229540
v 0.174699 -0.037801 -0.170405
v 0.174699 -0.050300 -0.170405
v 0.187198 -0.037801 -0.175448
v 0.187198 -0.050300 -0.175448
v 0.174699 -0.037801 0.170405
v 0.174699 -0.050300 0.170405
v 0.187198 -0.037801 0.175448
v 0.187198 -0.050300 0.175448
v 0.137281 -0.050300 -0.222204
v 0.131756 -0.050300 -0.209752
v 0.131756 -0.037801 -0.209752
v 0.131756 -0.037801 0.209752
v 0.131756 -0.050300 0.209752
v 0.137281 -0.050300 0.222204
v 0.137281 -0.037801 0.222204
v 0.137281 -0.037801 -0.222204
v 0.053429 -0.050300 -0.229540
v 0.052340 -0.050300 -0.217088
v 0.052340 -0.037801 -0.217088
v 0.052340 -0.037801 0.217088
v 0.052340 -0.050300 0.217088
v 0.053429 -0.050300 0.229540
v 0.053429 -0.037801 0.229540
v 0.053429 -0.037801 -0.229540
v 0.056203 -0.116057 -0.126340
v 0.056203 0.116108 -0.126340
v 0.056203 0.116108 -0.113840
v 0.055114 0.106003 -0.113840
v 0.055114 0.106003 -0.126340
v 0.055114 -0.105546 -0.126340
v 0.055114 -0.105546 -0.113840
v 0.056203 -0.116057 -0.113840
v 0.140055 -0.109785 -0.126340
v 0.140055 0.111267 -0.126340
v 0.140055 0.111267 -0.113840
v 0.136242 0.100805 -0.113840
v 0.136242 0.100805 -0.126340
v 0.137912 -0.099557 -0.126340
v 0.137912 -0.099557 -0.113840
v 0.140055 -0.109785 -0.113840
v 0.189972 0.072795 -0.113840
v 0.189972 0.072795 -0.126340
v 0.177473 0.064705 -0.113840
v 0.177473 0.064705 -0.126340
v 0.189972 -0.069577 -0.113840
v 0.189972 -0.069577 -0.126340
v 0.177473 -0.063223 -0.113840
v 0.177473 -0.063223 -0.126340
v 0.177473 -0.063223 0.113750
v 0.177473 -0.063223 0.126250
v 0.189972 -0.069577 0.113750
v 0.189972 -0.069577 0.126250
v 0.177473 0.064705 0.113750
v 0.177473 0.064705 0.126250
v 0.189972 0.072795 0.113750
v 0.189972 0.072795 0.126250
v 0.140055 -0.109785 0.126250
v 0.137912 -0.099557 0.126250
v 0.137912 -0.099557 0.113750
v 0.136242 0.100805 0.113750
v 0.136242 0.100805 0.126250
v 0.140055 0.111267 0.126250
v 0.140055 0.111267 0.113750
v 0.140055 -0.109785 0.113750
v 0.056203 -0.116057 0.126250
v 0.055114 -0.105546 0.126250
v 0.055114 -0.105546 0.113750
v 0.055114 0.106003 0.113750
v 0.055114 0.106003 0.126250
v 0.056203 0.116108 0.126250
v 0.056203 0.116108 0.113750
v 0.056203 -0.116057 0.113750
v 0.056171 -0.145255 0.201498
v 0.056171 -0.103152 0.243600
v 0.056171 0.145255 -0.201498
v 0.056171 0.099913 -0.243600
v 0.056171 0.103152 0.243600
v 0.056171 0.145255 0.201498
v 0.056171 -0.103152 -0.243600
v 0.056171 -0.145255 -0.201498
v -0.002109 0.145255 -0.000000
v 0.056171 0.145255 -0.000000
v 0.056171 0.094339 0.000010
v -0.002109 -0.145255 0.000000
v 0.056171 -0.145255 0.000000
v 0.056171 -0.093758 -0.000181
vn -0.0000 -1.0000 -0.0000
vn -0.0000 -0.0000 1.0000
vn -0.0000 1.0000 -0.0000
vn -0.0000 -0.0000 -1.0000
vn -0.0000 -0.7071 0.7071
vn -0.0000 0.6902 -0.7237
vn -0.0000 0.7071 0.7071
vn -0.0000 -0.7071 -0.7071
vn 1.0000 -0.0000 -0.0000
vn 0.4700 0.6538 -0.5930
vn 0.4889 -0.6168 -0.6168
vn -1.0000 -0.0000 -0.0000
vn 0.4889 0.6168 0.6168
vn 0.4889 -0.6168 0.6168
vn 0.6211 -0.0000 0.7837
vn 0.0152 0.7070 -0.7070
vn 0.5837 0.8120 -0.0000
vn 0.6211 -0.7837 -0.0000
vn 0.6211 -0.0000 -0.7837
vn 0.0215 0.9998 -0.0000
vn 0.0872 -0.0000 -0.9962
vn 0.6836 -0.0000 0.7298
vn 0.6836 -0.0000 -0.7298
vn -0.6756 -0.0000 0.7373
vn -0.6756 -0.0000 -0.7373
vn 0.0872 -0.0000 0.9962
vn -0.0920 -0.0000 0.9958
vn -0.0920 -0.0000 -0.9958
vn -0.0639 -0.9980 -0.0000
vn -0.0721 0.9974 -0.0000
vn 0.0576 0.9983 -0.0000
vn -0.6587 -0.7524 -0.0000
vn -0.6764 0.7365 -0.0000
vn 0.6273 -0.7788 -0.0000
vn 0.6105 0.7921 -0.0000
vn 0.0746 -0.9972 -0.0000
vn 0.0140 0.6804 -0.7327
vn -0.0000 0.7327 -0.6805
vn 0.6211 0.7837 -0.0077
vn -0.0000 1.0000 -0.0073
vt 0.250000 0.625000
vt 0.375000 0.562500
vt 0.375000 0.625000
vt 0.187500 0.562500
vt 0.062500 0.625000
vt 0.062500 0.562500
vt 0.187500 0.625000
vt 0.000286 0.562500
vt 0.000000 0.625000
vt 0.000000 0.562500
vt 0.250000 0.562500
vt 1.000000 0.250000
vt 0.812500 0.750000
vt 1.000000 0.750000
vt 0.000000 0.687500
vt 0.500000 0.750000
vt 0.000000 0.750000
vt 0.750000 0.812500
vt 0.562500 1.000000
vt 0.562500 0.812500
vt 0.750000 0.250000
vt 0.562500 0.750000
vt 0.562500 0.250000
vt 0.750000 0.000000
vt 0.562500 0.187500
vt 0.562500 0.000000
vt 0.500000 0.687500
vt 0.750000 0.937500
vt 0.812500 0.937500
vt 0.812500 1.000000
vt 0.875000 0.937500
vt 0.500000 0.625000
vt 0.250000 0.687500
vt 0.250000 0.750000
vt 0.875000 0.812500
vt 0.875000 0.750000
vt 0.937500 0.812500
vt 0.937500 1.000000
vt 0.937500 0.937500
vt 1.000000 0.937500
vt 0.750000 0.750000
vt 0.812500 0.250000
vt 0.937500 0.750000
vt 0.500000 0.250000
vt 0.500000 0.812500
vt 0.000000 0.812500
vt 0.750000 0.187500
vt 0.250000 0.812500
vt 0.250000 0.937500
vt 0.500000 1.000000
vt 0.250000 1.000000
vt 0.500000 0.875000
vt 0.250000 0.875000
vt 0.000000 1.000000
vt 0.000000 0.937500
vt 0.500000 0.937500
vt 0.000000 0.875000
vt 0.291985 0.089153
vt 0.415266 0.073249
vt 0.343988 0.001971
vt 0.293149 0.410977
vt 0.416463 0.420276
vt 0.345186 0.497037
vt 0.291985 0.407455
vt 0.415266 0.422512
vt 0.342719 0.356721
vt 0.293796 0.092400
vt 0.416463 0.076496
vt 0.344530 0.143134
vt 0.344267 0.355136
vt 0.004061 0.497037
vt 0.004044 0.410840
vt 0.002863 0.001971
vt 0.002557 0.089153
vt 0.342719 0.139887
vt 0.002863 0.493790
vt 0.343988 0.493790
vt 0.500000 0.562500
vt 0.004061 0.005218
vt 0.345186 0.005218
vt 0.750000 1.000000
vt 0.875000 1.000000
vt 0.002880 0.407592
vt 0.004367 0.092400
s 0
f 8/1/1 145/2/1 144/3/1
f 137/4/2 16/5/2 134/6/2
f 14/1/3 142/2/3 141/3/3
f 7/7/4 136/6/4 139/4/4
f 133/8/5 16/5/5 15/9/5
f 135/10/6 6/5/6 5/9/6
f 14/1/7 137/4/7 138/11/7
f 8/1/8 139/4/8 140/11/8
f 25/12/1 44/13/1 36/14/1
f 1/15/3 35/16/3 3/17/3
f 39/18/2 37/19/2 43/20/2
f 29/21/9 42/22/9 32/23/9
f 22/24/4 31/25/4 24/26/4
f 2/17/1 38/27/1 26/16/1
f 27/28/10 28/29/10 29/30/10
f 30/29/11 31/31/11 32/30/11
f 23/27/12 2/9/12 26/32/12
f 1/17/3 52/33/3 47/34/3
f 39/35/13 40/36/13 41/37/13
f 42/38/14 43/39/14 44/40/14
f 40/41/15 43/20/15 42/22/15
f 28/29/16 22/41/16 21/13/16
f 28/42/17 40/41/17 29/21/17
f 44/40/5 37/43/5 36/14/5
f 26/17/1 50/33/1 49/34/1
f 30/44/18 42/22/18 44/16/18
f 3/17/9 38/45/9 4/46/9
f 34/38/7 39/35/7 41/37/7
f 32/23/19 27/47/19 29/21/19
f 25/13/8 31/31/8 30/29/8
f 34/14/20 28/42/20 21/12/20
f 45/48/21 60/17/21 52/34/21
f 47/34/3 60/27/3 55/16/3
f 35/17/22 50/48/22 38/46/22
f 4/45/23 52/34/23 3/16/23
f 1/27/24 46/1/24 2/32/24
f 2/16/1 45/33/1 4/27/1
f 26/9/25 48/33/25 23/15/25
f 23/16/3 51/33/3 35/27/3
f 51/34/26 58/45/26 50/48/26
f 47/33/27 54/9/27 46/1/27
f 48/34/3 59/15/3 51/33/3
f 49/34/1 58/27/1 57/16/1
f 49/1/28 56/27/28 48/33/28
f 46/34/1 53/15/1 45/33/1
f 61/15/3 67/16/3 63/17/3
f 62/17/1 68/27/1 66/16/1
f 65/27/12 62/9/12 66/32/12
f 61/17/3 76/33/3 71/34/3
f 66/27/1 74/34/1 73/33/1
f 63/17/9 68/45/9 64/46/9
f 69/48/21 84/17/21 76/34/21
f 71/34/3 84/27/3 79/16/3
f 67/17/22 74/48/22 68/46/22
f 64/45/23 76/34/23 63/16/23
f 61/27/24 70/1/24 62/32/24
f 62/15/1 69/34/1 64/17/1
f 66/9/25 72/33/25 65/15/25
f 65/16/3 75/33/3 67/27/3
f 75/34/26 82/45/26 74/48/26
f 71/33/27 78/9/27 70/1/27
f 72/34/3 83/15/3 75/33/3
f 73/33/1 82/17/1 81/15/1
f 73/1/28 80/27/28 72/33/28
f 70/33/1 77/16/1 69/34/1
f 99/49/2 92/50/2 100/51/2
f 96/48/29 89/52/29 97/53/29
f 96/49/2 87/54/2 88/55/2
f 97/51/4 86/55/4 94/49/4
f 98/48/30 91/52/30 99/53/30
f 94/53/31 87/56/31 95/49/31
f 102/56/4 97/51/4 94/49/4
f 103/46/32 97/53/32 104/57/32
f 105/54/2 99/49/2 100/51/2
f 108/46/33 99/53/33 107/57/33
f 105/57/34 93/49/34 106/55/34
f 101/55/35 94/53/35 95/49/35
f 98/51/4 85/56/4 90/50/4
f 100/53/36 85/56/36 93/49/36
f 106/56/9 101/57/9 105/52/9
f 101/50/2 96/49/2 103/56/2
f 106/55/4 98/51/4 108/54/4
f 104/46/12 107/52/12 103/57/12
f 103/55/2 105/50/2 101/54/2
f 104/54/4 106/56/4 108/50/4
f 113/54/4 111/56/4 109/50/4
f 114/55/2 112/50/2 116/54/2
f 113/46/12 110/52/12 114/57/12
f 111/55/4 119/51/4 109/54/4
f 116/50/2 121/49/2 114/56/2
f 112/52/9 115/55/9 116/57/9
f 117/53/36 132/56/36 124/49/36
f 119/51/4 132/56/4 127/50/4
f 116/55/35 123/53/35 122/49/35
f 112/57/34 124/49/34 111/55/34
f 109/46/33 118/53/33 110/57/33
f 112/54/2 118/49/2 117/51/2
f 114/46/32 120/53/32 113/57/32
f 115/56/4 120/51/4 123/49/4
f 123/53/31 130/56/31 122/49/31
f 119/48/30 126/52/30 118/53/30
f 120/51/4 131/55/4 123/49/4
f 121/49/2 130/54/2 129/55/2
f 120/53/29 129/45/29 128/52/29
f 118/49/2 125/50/2 117/51/2
f 20/58/9 134/59/9 133/60/9
f 10/61/9 136/62/9 135/63/9
f 17/64/9 137/65/9 18/66/9
f 11/67/9 139/68/9 12/69/9
f 12/69/9 136/62/9 9/70/9
f 10/61/9 142/71/9 143/72/9
f 20/58/9 145/73/9 146/74/9
f 19/75/9 137/65/9 134/59/9
f 17/64/9 142/76/9 138/77/9
f 141/3/3 135/78/3 5/32/3
f 11/67/9 145/79/9 140/80/9
f 144/3/1 133/78/1 15/32/1
f 8/1/1 140/11/1 145/2/1
f 137/4/2 13/7/2 16/5/2
f 14/1/3 138/11/3 142/2/3
f 7/7/4 6/5/4 136/6/4
f 133/8/5 134/6/5 16/5/5
f 135/10/37 136/6/37 6/5/37
f 14/1/7 13/7/7 137/4/7
f 8/1/8 7/7/8 139/4/8
f 25/12/1 30/42/1 44/13/1
f 1/15/3 23/27/3 35/16/3
f 39/18/2 33/81/2 37/19/2
f 29/21/9 40/41/9 42/22/9
f 22/24/4 27/47/4 31/25/4
f 2/17/1 4/15/1 38/27/1
f 23/27/12 1/15/12 2/9/12
f 1/17/3 3/15/3 52/33/3
f 40/41/15 39/18/15 43/20/15
f 28/29/38 27/28/38 22/41/38
f 28/42/39 41/13/39 40/41/39
f 44/40/5 43/39/5 37/43/5
f 26/17/1 38/15/1 50/33/1
f 30/44/18 32/23/18 42/22/18
f 3/17/9 35/16/9 38/45/9
f 34/38/7 33/82/7 39/35/7
f 32/23/19 31/25/19 27/47/19
f 25/13/8 24/36/8 31/31/8
f 34/14/40 41/13/40 28/42/40
f 45/48/21 53/46/21 60/17/21
f 47/34/3 52/33/3 60/27/3
f 35/17/22 51/34/22 50/48/22
f 4/45/23 45/48/23 52/34/23
f 1/27/24 47/33/24 46/1/24
f 2/16/1 46/34/1 45/33/1
f 26/9/25 49/1/25 48/33/25
f 23/16/3 48/34/3 51/33/3
f 51/34/26 59/16/26 58/45/26
f 47/33/27 55/15/27 54/9/27
f 48/34/3 56/17/3 59/15/3
f 49/34/1 50/33/1 58/27/1
f 49/1/28 57/32/28 56/27/28
f 46/34/1 54/17/1 53/15/1
f 61/15/3 65/27/3 67/16/3
f 62/17/1 64/15/1 68/27/1
f 65/27/12 61/15/12 62/9/12
f 61/17/3 63/15/3 76/33/3
f 66/27/1 68/16/1 74/34/1
f 63/17/9 67/16/9 68/45/9
f 69/48/21 77/46/21 84/17/21
f 71/34/3 76/33/3 84/27/3
f 67/17/22 75/34/22 74/48/22
f 64/45/23 69/48/23 76/34/23
f 61/27/24 71/33/24 70/1/24
f 62/15/1 70/33/1 69/34/1
f 66/9/25 73/1/25 72/33/25
f 65/16/3 72/34/3 75/33/3
f 75/34/26 83/16/26 82/45/26
f 71/33/27 79/15/27 78/9/27
f 72/34/3 80/17/3 83/15/3
f 73/33/1 74/34/1 82/17/1
f 73/1/28 81/32/28 80/27/28
f 70/33/1 78/27/1 77/16/1
f 99/49/2 91/56/2 92/50/2
f 96/48/29 88/45/29 89/52/29
f 96/49/2 95/51/2 87/54/2
f 97/51/4 89/54/4 86/55/4
f 98/48/30 90/45/30 91/52/30
f 94/53/31 86/52/31 87/56/31
f 102/56/4 104/50/4 97/51/4
f 103/46/32 96/48/32 97/53/32
f 105/54/2 107/55/2 99/49/2
f 108/46/33 98/48/33 99/53/33
f 105/57/34 100/53/34 93/49/34
f 101/55/35 102/57/35 94/53/35
f 98/51/4 93/49/4 85/56/4
f 100/53/36 92/52/36 85/56/36
f 106/56/9 102/55/9 101/57/9
f 101/50/2 95/51/2 96/49/2
f 106/55/4 93/49/4 98/51/4
f 104/46/12 108/45/12 107/52/12
f 103/55/2 107/56/2 105/50/2
f 104/54/4 102/55/4 106/56/4
f 113/54/4 115/55/4 111/56/4
f 114/55/2 110/56/2 112/50/2
f 113/46/12 109/45/12 110/52/12
f 111/55/4 124/49/4 119/51/4
f 116/50/2 122/51/2 121/49/2
f 112/52/9 111/56/9 115/55/9
f 117/53/36 125/52/36 132/56/36
f 119/51/4 124/49/4 132/56/4
f 116/55/35 115/57/35 123/53/35
f 112/57/34 117/53/34 124/49/34
f 109/46/33 119/48/33 118/53/33
f 112/54/2 110/55/2 118/49/2
f 114/46/32 121/48/32 120/53/32
f 115/56/4 113/50/4 120/51/4
f 123/53/31 131/52/31 130/56/31
f 119/48/30 127/45/30 126/52/30
f 120/51/4 128/54/4 131/55/4
f 121/49/2 122/51/2 130/54/2
f 120/53/29 121/48/29 129/45/29
f 118/49/2 126/56/2 125/50/2
f 20/58/9 19/75/9 134/59/9
f 10/61/9 9/70/9 136/62/9
f 17/64/9 138/77/9 137/65/9
f 11/67/9 140/80/9 139/68/9
f 12/69/9 139/68/9 136/62/9
f 10/61/9 135/63/9 142/71/9
f 20/58/9 133/60/9 145/73/9
f 19/75/9 18/66/9 137/65/9
f 17/64/9 143/83/9 142/76/9
f 141/3/3 142/2/3 135/78/3
f 11/67/9 146/84/9 145/79/9
f 144/3/1 145/2/1 133/78/1
